# xmcd
#
# Track frame offsets:
#	150
#	15373
#	33450
#	50158
#	65417
#	79429
#	97681
#	115181
#	132838
#	147007
#	164479
#	179935
#	197914
#	214575
#	229478
#	245567
#	267536
#	295362
#
# Disc length: 3944 seconds
#
# Revision: 1
# Processed by: cddbd v1.5.2PL0 Copyright (c) Steve Scherf et al.
# Submitted via: audiograbber 1.83.01
#
DISCID=160f6612
DTITLE=Country - Top Tunes 185
DYEAR=1900
DGENRE=KARAOKE
TTITLE0=Tucker, Tanya - Memory Like I'm Gonna Be, A
TTITLE1=Chesney, Kenny - Big Star
TTITLE2=Keith, Toby - Courtesy Of The Red, White And Blue
TTITLE3=Worley, Darryl - Family Tree
TTITLE4=Denney, Kevin - I'll Go Away
TTITLE5=Earle, Steve - Jerusalem
TTITLE6=Dixie Chicks - Landslide (Lp Version)
TTITLE7=Chesney, Kenny - Live Those Songs
TTITLE8=Rascal Flatts - Love You Out Loud
TTITLE9=Keith, Toby - Rock You Baby
TTITLE10=Tillis, Pam - So Wrong
TTITLE11=Bates, Jeff - Love Song, The
TTITLE12=Andrews, Jessica - There's More To Me Than You
TTITLE13=Carter, Deana - There's No Limit
TTITLE14=Vassar, Phil - This Is God
TTITLE15=Dixie Chicks - Travelin' Soldier
TTITLE16=Moorer, Alison - Up This High
TTITLE17=data - Data Track
EXTD=
EXTT0=
EXTT1=
EXTT2=
EXTT3=
EXTT4=
EXTT5=
EXTT6=
EXTT7=
EXTT8=
EXTT9=
EXTT10=
EXTT11=
EXTT12=
EXTT13=
EXTT14=
EXTT15=
EXTT16=
EXTT17=
PLAYORDER=
